  0
SECTION
  2
HEADER
  9
$ACADVER
  1
AC1009
  9
$EXTMIN
 10
0.0
 20
0.0
 30
0.0
  9
$EXTMAX
 10
1000.0
 20
1000.0
 30
0.0
  9
$FILLMODE
 70
 0
  9
$SPLFRAME
 70
 1
  0
ENDSEC
  0
SECTION
  2
TABLES
  0
TABLE
  2
LAYER
 70
1
  0
LAYER
  2
0
 70
     0
 62
     7
  6
CONTINUOUS
  0
ENDTAB
  0
ENDSEC
  0
SECTION
  2
ENTITIES
  0
LINE
  8
0
 62
     0
 10
0.0950846
 20
101.505
 30
0.0
 11
120.395
 21
101.505
 31
0.0
  0
LINE
  8
0
 62
     0
 10
120.395
 20
101.505
 30
0.0
 11
120.395
 21
0.254937
 31
0.0
  0
LINE
  8
0
 62
     0
 10
120.395
 20
0.254937
 30
0.0
 11
0.0950846
 21
0.254937
 31
0.0
  0
LINE
  8
0
 62
     0
 10
0.0950846
 20
0.254937
 30
0.0
 11
0.0950846
 21
101.505
 31
0.0
  0
LINE
  8
0
 62
     0
 10
0.835092
 20
2.25585
 30
0.0
 11
0.558105
 21
2.11391
 31
0.0
  0
LINE
  8
0
 62
     0
 10
0.558105
 20
2.11391
 30
0.0
 11
0.334863
 21
1.89205
 31
0.0
  0
LINE
  8
0
 62
     0
 10
0.334863
 20
1.89205
 30
0.0
 11
0.192925
 21
1.61506
 31
0.0
  0
LINE
  8
0
 62
     0
 10
0.192925
 20
1.61506
 30
0.0
 11
0.144694
 21
1.305
 31
0.0
  0
LINE
  8
0
 62
     0
 10
0.144694
 20
1.305
 30
0.0
 11
0.192925
 21
0.994943
 31
0.0
  0
LINE
  8
0
 62
     0
 10
0.192925
 20
0.994943
 30
0.0
 11
0.334863
 21
0.717959
 31
0.0
  0
LINE
  8
0
 62
     0
 10
0.334863
 20
0.717959
 30
0.0
 11
0.558105
 21
0.496094
 31
0.0
  0
LINE
  8
0
 62
     0
 10
0.558105
 20
0.496094
 30
0.0
 11
0.835092
 21
0.354157
 31
0.0
  0
LINE
  8
0
 62
     0
 10
0.835092
 20
0.354157
 30
0.0
 11
1.14515
 21
0.304546
 31
0.0
  0
LINE
  8
0
 62
     0
 10
1.14515
 20
0.304546
 30
0.0
 11
1.45383
 21
0.354157
 31
0.0
  0
LINE
  8
0
 62
     0
 10
1.45383
 20
0.354157
 30
0.0
 11
1.7322
 21
0.496094
 31
0.0
  0
LINE
  8
0
 62
     0
 10
1.7322
 20
0.496094
 30
0.0
 11
1.95406
 21
0.717959
 31
0.0
  0
LINE
  8
0
 62
     0
 10
1.95406
 20
0.717959
 30
0.0
 11
2.096
 21
0.994943
 31
0.0
  0
LINE
  8
0
 62
     0
 10
2.096
 20
0.994943
 30
0.0
 11
2.14423
 21
1.305
 31
0.0
  0
LINE
  8
0
 62
     0
 10
2.14423
 20
1.305
 30
0.0
 11
2.096
 21
1.61506
 31
0.0
  0
LINE
  8
0
 62
     0
 10
2.096
 20
1.61506
 30
0.0
 11
1.95406
 21
1.89205
 31
0.0
  0
LINE
  8
0
 62
     0
 10
1.95406
 20
1.89205
 30
0.0
 11
1.7322
 21
2.11391
 31
0.0
  0
LINE
  8
0
 62
     0
 10
1.7322
 20
2.11391
 30
0.0
 11
1.45383
 21
2.25585
 31
0.0
  0
LINE
  8
0
 62
     0
 10
1.45383
 20
2.25585
 30
0.0
 11
1.14515
 21
2.30408
 31
0.0
  0
LINE
  8
0
 62
     0
 10
1.14515
 20
2.30408
 30
0.0
 11
0.835092
 21
2.25585
 31
0.0
  0
LINE
  8
0
 62
     0
 10
59.9352
 20
2.25585
 30
0.0
 11
59.6579
 21
2.11391
 31
0.0
  0
LINE
  8
0
 62
     0
 10
59.6579
 20
2.11391
 30
0.0
 11
59.436
 21
1.89205
 31
0.0
  0
LINE
  8
0
 62
     0
 10
59.436
 20
1.89205
 30
0.0
 11
59.2942
 21
1.61506
 31
0.0
  0
LINE
  8
0
 62
     0
 10
59.2942
 20
1.61506
 30
0.0
 11
59.2459
 21
1.305
 31
0.0
  0
LINE
  8
0
 62
     0
 10
59.2459
 20
1.305
 30
0.0
 11
59.2942
 21
0.994943
 31
0.0
  0
LINE
  8
0
 62
     0
 10
59.2942
 20
0.994943
 30
0.0
 11
59.436
 21
0.717959
 31
0.0
  0
LINE
  8
0
 62
     0
 10
59.436
 20
0.717959
 30
0.0
 11
59.6579
 21
0.496094
 31
0.0
  0
LINE
  8
0
 62
     0
 10
59.6579
 20
0.496094
 30
0.0
 11
59.9352
 21
0.354157
 31
0.0
  0
LINE
  8
0
 62
     0
 10
59.9352
 20
0.354157
 30
0.0
 11
60.2449
 21
0.304546
 31
0.0
  0
LINE
  8
0
 62
     0
 10
60.2449
 20
0.304546
 30
0.0
 11
60.555
 21
0.354157
 31
0.0
  0
LINE
  8
0
 62
     0
 10
60.555
 20
0.354157
 30
0.0
 11
60.8334
 21
0.496094
 31
0.0
  0
LINE
  8
0
 62
     0
 10
60.8334
 20
0.496094
 30
0.0
 11
61.0538
 21
0.717959
 31
0.0
  0
LINE
  8
0
 62
     0
 10
61.0538
 20
0.717959
 30
0.0
 11
61.196
 21
0.994943
 31
0.0
  0
LINE
  8
0
 62
     0
 10
61.196
 20
0.994943
 30
0.0
 11
61.2454
 21
1.305
 31
0.0
  0
LINE
  8
0
 62
     0
 10
61.2454
 20
1.305
 30
0.0
 11
61.196
 21
1.61506
 31
0.0
  0
LINE
  8
0
 62
     0
 10
61.196
 20
1.61506
 30
0.0
 11
61.0538
 21
1.89205
 31
0.0
  0
LINE
  8
0
 62
     0
 10
61.0538
 20
1.89205
 30
0.0
 11
60.8334
 21
2.11391
 31
0.0
  0
LINE
  8
0
 62
     0
 10
60.8334
 20
2.11391
 30
0.0
 11
60.555
 21
2.25585
 31
0.0
  0
LINE
  8
0
 62
     0
 10
60.555
 20
2.25585
 30
0.0
 11
60.2449
 21
2.30408
 31
0.0
  0
LINE
  8
0
 62
     0
 10
60.2449
 20
2.30408
 30
0.0
 11
59.9352
 21
2.25585
 31
0.0
  0
LINE
  8
0
 62
     0
 10
119.036
 20
2.25585
 30
0.0
 11
118.758
 21
2.11391
 31
0.0
  0
LINE
  8
0
 62
     0
 10
118.758
 20
2.11391
 30
0.0
 11
118.536
 21
1.89205
 31
0.0
  0
LINE
  8
0
 62
     0
 10
118.536
 20
1.89205
 30
0.0
 11
118.394
 21
1.61506
 31
0.0
  0
LINE
  8
0
 62
     0
 10
118.394
 20
1.61506
 30
0.0
 11
118.346
 21
1.305
 31
0.0
  0
LINE
  8
0
 62
     0
 10
118.346
 20
1.305
 30
0.0
 11
118.394
 21
0.994943
 31
0.0
  0
LINE
  8
0
 62
     0
 10
118.394
 20
0.994943
 30
0.0
 11
118.536
 21
0.717959
 31
0.0
  0
LINE
  8
0
 62
     0
 10
118.536
 20
0.717959
 30
0.0
 11
118.758
 21
0.496094
 31
0.0
  0
LINE
  8
0
 62
     0
 10
118.758
 20
0.496094
 30
0.0
 11
119.036
 21
0.354157
 31
0.0
  0
LINE
  8
0
 62
     0
 10
119.036
 20
0.354157
 30
0.0
 11
119.346
 21
0.304546
 31
0.0
  0
LINE
  8
0
 62
     0
 10
119.346
 20
0.304546
 30
0.0
 11
119.655
 21
0.354157
 31
0.0
  0
LINE
  8
0
 62
     0
 10
119.655
 20
0.354157
 30
0.0
 11
119.934
 21
0.496094
 31
0.0
  0
LINE
  8
0
 62
     0
 10
119.934
 20
0.496094
 30
0.0
 11
120.155
 21
0.717959
 31
0.0
  0
LINE
  8
0
 62
     0
 10
120.155
 20
0.717959
 30
0.0
 11
120.297
 21
0.994943
 31
0.0
  0
LINE
  8
0
 62
     0
 10
120.297
 20
0.994943
 30
0.0
 11
120.347
 21
1.305
 31
0.0
  0
LINE
  8
0
 62
     0
 10
120.347
 20
1.305
 30
0.0
 11
120.297
 21
1.61506
 31
0.0
  0
LINE
  8
0
 62
     0
 10
120.297
 20
1.61506
 30
0.0
 11
120.155
 21
1.89205
 31
0.0
  0
LINE
  8
0
 62
     0
 10
120.155
 20
1.89205
 30
0.0
 11
119.934
 21
2.11391
 31
0.0
  0
LINE
  8
0
 62
     0
 10
119.934
 20
2.11391
 30
0.0
 11
119.655
 21
2.25585
 31
0.0
  0
LINE
  8
0
 62
     0
 10
119.655
 20
2.25585
 30
0.0
 11
119.346
 21
2.30408
 31
0.0
  0
LINE
  8
0
 62
     0
 10
119.346
 20
2.30408
 30
0.0
 11
119.036
 21
2.25585
 31
0.0
  0
LINE
  8
0
 62
     0
 10
2.19384
 20
99.4061
 30
0.0
 11
118.296
 21
99.4061
 31
0.0
  0
LINE
  8
0
 62
     0
 10
118.296
 20
99.4061
 30
0.0
 11
118.296
 21
2.35507
 31
0.0
  0
LINE
  8
0
 62
     0
 10
118.296
 20
2.35507
 30
0.0
 11
2.19384
 21
2.35507
 31
0.0
  0
LINE
  8
0
 62
     0
 10
2.19384
 20
2.35507
 30
0.0
 11
2.19384
 21
99.4061
 31
0.0
  0
LINE
  8
0
 62
     0
 10
119.036
 20
101.407
 30
0.0
 11
118.758
 21
101.265
 31
0.0
  0
LINE
  8
0
 62
     0
 10
118.758
 20
101.265
 30
0.0
 11
118.536
 21
101.043
 31
0.0
  0
LINE
  8
0
 62
     0
 10
118.536
 20
101.043
 30
0.0
 11
118.394
 21
100.765
 31
0.0
  0
LINE
  8
0
 62
     0
 10
118.394
 20
100.765
 30
0.0
 11
118.346
 21
100.455
 31
0.0
  0
LINE
  8
0
 62
     0
 10
118.346
 20
100.455
 30
0.0
 11
118.394
 21
100.146
 31
0.0
  0
LINE
  8
0
 62
     0
 10
118.394
 20
100.146
 30
0.0
 11
118.536
 21
99.8693
 31
0.0
  0
LINE
  8
0
 62
     0
 10
118.536
 20
99.8693
 30
0.0
 11
118.758
 21
99.646
 31
0.0
  0
LINE
  8
0
 62
     0
 10
118.758
 20
99.646
 30
0.0
 11
119.036
 21
99.5041
 31
0.0
  0
LINE
  8
0
 62
     0
 10
119.036
 20
99.5041
 30
0.0
 11
119.346
 21
99.4558
 31
0.0
  0
LINE
  8
0
 62
     0
 10
119.346
 20
99.4558
 30
0.0
 11
119.655
 21
99.5041
 31
0.0
  0
LINE
  8
0
 62
     0
 10
119.655
 20
99.5041
 30
0.0
 11
119.934
 21
99.646
 31
0.0
  0
LINE
  8
0
 62
     0
 10
119.934
 20
99.646
 30
0.0
 11
120.155
 21
99.8693
 31
0.0
  0
LINE
  8
0
 62
     0
 10
120.155
 20
99.8693
 30
0.0
 11
120.297
 21
100.146
 31
0.0
  0
LINE
  8
0
 62
     0
 10
120.297
 20
100.146
 30
0.0
 11
120.347
 21
100.455
 31
0.0
  0
LINE
  8
0
 62
     0
 10
120.347
 20
100.455
 30
0.0
 11
120.297
 21
100.765
 31
0.0
  0
LINE
  8
0
 62
     0
 10
120.297
 20
100.765
 30
0.0
 11
120.155
 21
101.043
 31
0.0
  0
LINE
  8
0
 62
     0
 10
120.155
 20
101.043
 30
0.0
 11
119.934
 21
101.265
 31
0.0
  0
LINE
  8
0
 62
     0
 10
119.934
 20
101.265
 30
0.0
 11
119.655
 21
101.407
 31
0.0
  0
LINE
  8
0
 62
     0
 10
119.655
 20
101.407
 30
0.0
 11
119.346
 21
101.455
 31
0.0
  0
LINE
  8
0
 62
     0
 10
119.346
 20
101.455
 30
0.0
 11
119.036
 21
101.407
 31
0.0
  0
LINE
  8
0
 62
     0
 10
59.9352
 20
101.407
 30
0.0
 11
59.6579
 21
101.265
 31
0.0
  0
LINE
  8
0
 62
     0
 10
59.6579
 20
101.265
 30
0.0
 11
59.436
 21
101.043
 31
0.0
  0
LINE
  8
0
 62
     0
 10
59.436
 20
101.043
 30
0.0
 11
59.2942
 21
100.765
 31
0.0
  0
LINE
  8
0
 62
     0
 10
59.2942
 20
100.765
 30
0.0
 11
59.2459
 21
100.455
 31
0.0
  0
LINE
  8
0
 62
     0
 10
59.2459
 20
100.455
 30
0.0
 11
59.2942
 21
100.146
 31
0.0
  0
LINE
  8
0
 62
     0
 10
59.2942
 20
100.146
 30
0.0
 11
59.436
 21
99.8693
 31
0.0
  0
LINE
  8
0
 62
     0
 10
59.436
 20
99.8693
 30
0.0
 11
59.6579
 21
99.646
 31
0.0
  0
LINE
  8
0
 62
     0
 10
59.6579
 20
99.646
 30
0.0
 11
59.9352
 21
99.5041
 31
0.0
  0
LINE
  8
0
 62
     0
 10
59.9352
 20
99.5041
 30
0.0
 11
60.2449
 21
99.4558
 31
0.0
  0
LINE
  8
0
 62
     0
 10
60.2449
 20
99.4558
 30
0.0
 11
60.555
 21
99.5041
 31
0.0
  0
LINE
  8
0
 62
     0
 10
60.555
 20
99.5041
 30
0.0
 11
60.8334
 21
99.646
 31
0.0
  0
LINE
  8
0
 62
     0
 10
60.8334
 20
99.646
 30
0.0
 11
61.0538
 21
99.8693
 31
0.0
  0
LINE
  8
0
 62
     0
 10
61.0538
 20
99.8693
 30
0.0
 11
61.196
 21
100.146
 31
0.0
  0
LINE
  8
0
 62
     0
 10
61.196
 20
100.146
 30
0.0
 11
61.2454
 21
100.455
 31
0.0
  0
LINE
  8
0
 62
     0
 10
61.2454
 20
100.455
 30
0.0
 11
61.196
 21
100.765
 31
0.0
  0
LINE
  8
0
 62
     0
 10
61.196
 20
100.765
 30
0.0
 11
61.0538
 21
101.043
 31
0.0
  0
LINE
  8
0
 62
     0
 10
61.0538
 20
101.043
 30
0.0
 11
60.8334
 21
101.265
 31
0.0
  0
LINE
  8
0
 62
     0
 10
60.8334
 20
101.265
 30
0.0
 11
60.555
 21
101.407
 31
0.0
  0
LINE
  8
0
 62
     0
 10
60.555
 20
101.407
 30
0.0
 11
60.2449
 21
101.455
 31
0.0
  0
LINE
  8
0
 62
     0
 10
60.2449
 20
101.455
 30
0.0
 11
59.9352
 21
101.407
 31
0.0
  0
LINE
  8
0
 62
     0
 10
0.835092
 20
101.407
 30
0.0
 11
0.558105
 21
101.265
 31
0.0
  0
LINE
  8
0
 62
     0
 10
0.558105
 20
101.265
 30
0.0
 11
0.334863
 21
101.043
 31
0.0
  0
LINE
  8
0
 62
     0
 10
0.334863
 20
101.043
 30
0.0
 11
0.192925
 21
100.765
 31
0.0
  0
LINE
  8
0
 62
     0
 10
0.192925
 20
100.765
 30
0.0
 11
0.144694
 21
100.456
 31
0.0
  0
LINE
  8
0
 62
     0
 10
0.144694
 20
100.456
 30
0.0
 11
0.192925
 21
100.146
 31
0.0
  0
LINE
  8
0
 62
     0
 10
0.192925
 20
100.146
 30
0.0
 11
0.334863
 21
99.8693
 31
0.0
  0
LINE
  8
0
 62
     0
 10
0.334863
 20
99.8693
 30
0.0
 11
0.558105
 21
99.646
 31
0.0
  0
LINE
  8
0
 62
     0
 10
0.558105
 20
99.646
 30
0.0
 11
0.835092
 21
99.5041
 31
0.0
  0
LINE
  8
0
 62
     0
 10
0.835092
 20
99.5041
 30
0.0
 11
1.14515
 21
99.4572
 31
0.0
  0
LINE
  8
0
 62
     0
 10
1.14515
 20
99.4572
 30
0.0
 11
1.45383
 21
99.5041
 31
0.0
  0
LINE
  8
0
 62
     0
 10
1.45383
 20
99.5041
 30
0.0
 11
1.7322
 21
99.646
 31
0.0
  0
LINE
  8
0
 62
     0
 10
1.7322
 20
99.646
 30
0.0
 11
1.95406
 21
99.8693
 31
0.0
  0
LINE
  8
0
 62
     0
 10
1.95406
 20
99.8693
 30
0.0
 11
2.096
 21
100.146
 31
0.0
  0
LINE
  8
0
 62
     0
 10
2.096
 20
100.146
 30
0.0
 11
2.14423
 21
100.456
 31
0.0
  0
LINE
  8
0
 62
     0
 10
2.14423
 20
100.456
 30
0.0
 11
2.096
 21
100.765
 31
0.0
  0
LINE
  8
0
 62
     0
 10
2.096
 20
100.765
 30
0.0
 11
1.95406
 21
101.043
 31
0.0
  0
LINE
  8
0
 62
     0
 10
1.95406
 20
101.043
 30
0.0
 11
1.7322
 21
101.265
 31
0.0
  0
LINE
  8
0
 62
     0
 10
1.7322
 20
101.265
 30
0.0
 11
1.45383
 21
101.407
 31
0.0
  0
LINE
  8
0
 62
     0
 10
1.45383
 20
101.407
 30
0.0
 11
1.14515
 21
101.457
 31
0.0
  0
LINE
  8
0
 62
     0
 10
1.14515
 20
101.457
 30
0.0
 11
0.835092
 21
101.407
 31
0.0
  0
ENDSEC
  0
EOF
