M48
METRIC,LZ,000.000
;FILE_FORMAT=3:3
;TYPE=NON_PLATED
;Layer: Drill NPTH
;EasyEDA v6.4.17, 2021-03-21T20:07:18+01:00
;c47a54ca09f5448bbd9a4779f7b556aa,4df854c6aec24255a39790d4430c752a,10
;Gerber Generator version 0.2
;Holesize 1 = 1.905 mm
T01C1.905
;Holesize 2 = 3.048 mm
T02C3.048
;Holesize 3 = 3.988 mm
T03C3.988
;Holesize 4 = 4.191 mm
T04C4.191
%
G05
G90
T01
X098920Y-003500
X109080Y-003500
X011420Y075499
X021580Y075499
X050419Y075499
X060579Y075499
X069921Y075499
X080081Y075499
X089421Y075499
X099581Y075499
X011420Y055999
X021580Y055999
X030919Y055999
X041079Y055999
X050419Y055999
X060579Y055999
X069921Y055999
X080081Y055999
X089421Y055999
X099581Y055999
X011420Y036500
X021580Y036500
X030919Y036500
X041079Y036500
X050419Y036500
X060579Y036500
X069921Y036500
X080081Y036500
X089421Y036500
X099581Y036500
X011420Y017000
X021580Y017000
X030919Y017000
X041079Y017000
X050419Y017000
X060579Y017000
X069921Y017000
X080081Y017000
X089421Y017000
X099581Y017000
X030919Y-003500
X041079Y-003500
X050419Y-003500
X060579Y-003500
X069921Y-003500
X080081Y-003500
X030919Y075499
X041079Y075499
T02
X115877Y003485
X092062Y003485
T03
X115877Y-011755
X092062Y-011755
T04
X104000Y-003500
X016500Y075499
X055499Y075499
X075001Y075499
X094501Y075499
X016500Y055999
X035999Y055999
X055499Y055999
X075001Y055999
X094501Y055999
X016500Y036500
X035999Y036500
X055499Y036500
X075001Y036500
X094501Y036500
X016500Y017000
X035999Y017000
X055499Y017000
X075001Y017000
X094501Y017000
X035999Y-003500
X055499Y-003500
X075001Y-003500
X035999Y075499
M30
