G04 Layer: BottomSolderMaskLayer*
G04 EasyEDA v6.4.17, 2021-03-21T20:07:18+01:00*
G04 c47a54ca09f5448bbd9a4779f7b556aa,4df854c6aec24255a39790d4430c752a,10*
G04 Gerber Generator version 0.2*
G04 Scale: 100 percent, Rotated: No, Reflected: No *
G04 Dimensions in millimeters *
G04 leading zeros omitted , absolute positions ,4 integer and 5 decimal *
%FSLAX45Y45*%
%MOMM*%

%ADD22C,1.2032*%
%ADD23C,3.2032*%
%ADD24C,2.4032*%
%ADD25C,2.3876*%
%ADD26C,2.0032*%
%ADD27C,2.0828*%

%LPD*%
D22*
X12283991Y1868423D02*
G01*
X12193991Y1868423D01*
X11978937Y1868423D02*
G01*
X11888937Y1868423D01*
X11489065Y1868423D02*
G01*
X11379065Y1868423D01*
X11489065Y2678176D02*
G01*
X11379065Y2678176D01*
X11999003Y2678176D02*
G01*
X11909003Y2678176D01*
X12283991Y2678176D02*
G01*
X12193991Y2678176D01*
D23*
G01*
X2624988Y6578600D03*
G01*
X2624988Y3650005D03*
G01*
X2275001Y-1275003D03*
G01*
X899998Y99999D03*
G01*
X12200000Y-350012D03*
G01*
X8474989Y6574993D03*
G01*
X8474989Y3650005D03*
D24*
G01*
X2032000Y7803997D03*
G01*
X1397000Y8057997D03*
D23*
G01*
X10706100Y3784600D03*
D25*
G01*
X10654029Y157987D03*
G01*
X10019029Y-96012D03*
G01*
X10781029Y-96012D03*
G01*
X10146029Y157987D03*
G01*
X1903984Y8057895D03*
G01*
X1268984Y7803895D03*
G01*
X1395984Y8057895D03*
G01*
X2030984Y7803895D03*
G01*
X5803900Y8057895D03*
G01*
X5168900Y7803895D03*
G01*
X5295900Y8057895D03*
G01*
X5930900Y7803895D03*
G01*
X7754111Y8057895D03*
G01*
X7119111Y7803895D03*
G01*
X7246111Y8057895D03*
G01*
X7881111Y7803895D03*
G01*
X9704070Y8057895D03*
G01*
X9069070Y7803895D03*
G01*
X9196070Y8057895D03*
G01*
X9831070Y7803895D03*
G01*
X1903984Y6107937D03*
G01*
X1268984Y5853937D03*
G01*
X1395984Y6107937D03*
G01*
X2030984Y5853937D03*
G01*
X3853941Y6107937D03*
G01*
X3218941Y5853937D03*
G01*
X3345941Y6107937D03*
G01*
X3980941Y5853937D03*
G01*
X5803900Y6107937D03*
G01*
X5168900Y5853937D03*
G01*
X5295900Y6107937D03*
G01*
X5930900Y5853937D03*
G01*
X7754111Y6107937D03*
G01*
X7119111Y5853937D03*
G01*
X7246111Y6107937D03*
G01*
X7881111Y5853937D03*
G01*
X9704070Y6107937D03*
G01*
X9069070Y5853937D03*
G01*
X9196070Y6107937D03*
G01*
X9831070Y5853937D03*
G01*
X1903984Y4157979D03*
G01*
X1268984Y3903979D03*
G01*
X1395984Y4157979D03*
G01*
X2030984Y3903979D03*
G01*
X3853941Y4157979D03*
G01*
X3218941Y3903979D03*
G01*
X3345941Y4157979D03*
G01*
X3980941Y3903979D03*
G01*
X5803900Y4157979D03*
G01*
X5168900Y3903979D03*
G01*
X5295900Y4157979D03*
G01*
X5930900Y3903979D03*
G01*
X7754111Y4157979D03*
G01*
X7119111Y3903979D03*
G01*
X7246111Y4157979D03*
G01*
X7881111Y3903979D03*
G01*
X9704070Y4157979D03*
G01*
X9069070Y3903979D03*
G01*
X9196070Y4157979D03*
G01*
X9831070Y3903979D03*
G01*
X1903984Y2208021D03*
G01*
X1268984Y1954021D03*
G01*
X1395984Y2208021D03*
G01*
X2030984Y1954021D03*
G01*
X3853941Y2208021D03*
G01*
X3218941Y1954021D03*
G01*
X3345941Y2208021D03*
G01*
X3980941Y1954021D03*
G01*
X5803900Y2208021D03*
G01*
X5168900Y1954021D03*
G01*
X5295900Y2208021D03*
G01*
X5930900Y1954021D03*
G01*
X7754111Y2208021D03*
G01*
X7119111Y1954021D03*
G01*
X7246111Y2208021D03*
G01*
X7881111Y1954021D03*
G01*
X9704070Y2208021D03*
G01*
X9069070Y1954021D03*
G01*
X9196070Y2208021D03*
G01*
X9831070Y1954021D03*
G01*
X3853941Y157987D03*
G01*
X3218941Y-96012D03*
G01*
X3345941Y157987D03*
G01*
X3980941Y-96012D03*
G01*
X5803900Y157987D03*
G01*
X5168900Y-96012D03*
G01*
X5295900Y157987D03*
G01*
X5930900Y-96012D03*
G01*
X7754111Y157987D03*
G01*
X7119111Y-96012D03*
G01*
X7246111Y157987D03*
G01*
X7881111Y-96012D03*
D26*
G01*
X9999979Y-1299997D03*
G01*
X10799978Y-1299997D03*
G01*
X5299989Y-1299997D03*
G01*
X6099987Y-1299997D03*
G01*
X3349980Y-1299997D03*
G01*
X4149979Y-1299997D03*
G01*
X9199981Y750011D03*
G01*
X9999979Y750011D03*
G01*
X7249998Y750011D03*
G01*
X8049996Y750011D03*
G01*
X5299989Y750011D03*
G01*
X6099987Y750011D03*
G01*
X3349980Y750011D03*
G01*
X4149979Y750011D03*
G01*
X1449984Y750011D03*
G01*
X2249982Y750011D03*
G01*
X9199981Y2650007D03*
G01*
X9999979Y2650007D03*
G01*
X7249998Y2650007D03*
G01*
X8049996Y2650007D03*
G01*
X5299989Y2650007D03*
G01*
X6099987Y2650007D03*
G01*
X3349980Y2650007D03*
G01*
X4149979Y2650007D03*
G01*
X1449984Y2650007D03*
G01*
X2249982Y2650007D03*
G01*
X9199981Y4625009D03*
G01*
X9999979Y4625009D03*
G01*
X7249998Y4625009D03*
G01*
X8049996Y4625009D03*
G01*
X5299989Y4625009D03*
G01*
X6099987Y4625009D03*
G01*
X3349980Y4625009D03*
G01*
X4149979Y4625009D03*
G01*
X1399997Y4625009D03*
G01*
X2199995Y4625009D03*
G01*
X9199981Y6574993D03*
G01*
X9999979Y6574993D03*
G01*
X7249998Y6574993D03*
G01*
X8049996Y6574993D03*
G01*
X5299989Y6574993D03*
G01*
X6099987Y6574993D03*
G01*
X3349980Y6578600D03*
G01*
X4149979Y6578600D03*
G01*
X1399997Y6578600D03*
G01*
X2199995Y6578600D03*
G01*
X7249998Y-1299997D03*
G01*
X8049996Y-1299997D03*
G36*
X10768075Y4352544D02*
G01*
X10768075Y4562855D01*
X10908284Y4562855D01*
X10908284Y4352544D01*
G37*
G36*
X11088115Y4352544D02*
G01*
X11088115Y4562855D01*
X11228324Y4562855D01*
X11228324Y4352544D01*
G37*
G36*
X10768075Y4695444D02*
G01*
X10768075Y4905755D01*
X10908284Y4905755D01*
X10908284Y4695444D01*
G37*
G36*
X11088115Y4695444D02*
G01*
X11088115Y4905755D01*
X11228324Y4905755D01*
X11228324Y4695444D01*
G37*
G01*
X12363399Y4457700D03*
G01*
X11563400Y4457700D03*
G01*
X12363399Y4800600D03*
G01*
X11563400Y4800600D03*
D27*
G01*
X12331700Y5308600D03*
G01*
X12331700Y5562600D03*
G01*
X12331700Y5816600D03*
G01*
X12331700Y6070600D03*
G01*
X12331700Y6324600D03*
G01*
X12331700Y6578600D03*
G01*
X12331700Y6832600D03*
G01*
X12331700Y7086600D03*
G01*
X12331700Y7340600D03*
G01*
X12331700Y7594600D03*
G01*
X12331700Y7848600D03*
G01*
X12331700Y8102600D03*
G01*
X10807700Y8102600D03*
G01*
X10807700Y7848600D03*
G01*
X10807700Y7594600D03*
G01*
X10807700Y7340600D03*
G01*
X10807700Y7086600D03*
G01*
X10807700Y6832600D03*
G01*
X10807700Y6578600D03*
G01*
X10807700Y6324600D03*
G01*
X10807700Y6070600D03*
G01*
X10807700Y5816600D03*
G01*
X10807700Y5562600D03*
G01*
X10807700Y5308600D03*
D25*
G01*
X3853941Y8057895D03*
G01*
X3218941Y7803895D03*
G01*
X3345941Y8057895D03*
G01*
X3980941Y7803895D03*
M02*
