M48
METRIC,LZ,000.000
;FILE_FORMAT=3:3
;TYPE=PLATED
;Layer: Drill PTH
;EasyEDA v6.4.17, 2021-03-21T20:07:18+01:00
;c47a54ca09f5448bbd9a4779f7b556aa,4df854c6aec24255a39790d4430c752a,10
;Gerber Generator version 0.2
;Holesize 1 = 0.305 mm
T01C0.305
;Holesize 2 = 0.501 mm
T02C0.501
;Holesize 3 = 1.000 mm
T03C1.000
;Holesize 4 = 1.016 mm
T04C1.016
;Holesize 5 = 1.501 mm
T05C1.501
;Holesize 6 = 1.524 mm
T06C1.524
;Holesize 7 = 2.400 mm
T07C2.400
%
G05
G90
T01
X120650Y036957
X119253Y078486
X117475Y078486
X105791Y044323
X119253Y068326
X114935Y068326
X119253Y070866
X117475Y070866
X109474Y049911
X110363Y049911
X119253Y065786
X117475Y065786
X112522Y042164
X119253Y063246
X117475Y063246
X100000Y-010287
X072517Y-010264
X053000Y-010287
X119253Y060706
X117475Y060706
X114300Y042164
X113411Y042164
X120523Y033655
X122047Y033655
X116840Y030099
X112268Y024511
X084750Y-012954
X116840Y037846
T02
X122840Y018684G85X121940Y018684
X119789Y018684G85X118889Y018684
X114891Y018684G85X113791Y018684
X114891Y026782G85X113791Y026782
X119990Y026782G85X119090Y026782
X122840Y026782G85X121940Y026782
T03
X100000Y-013000
X108000Y-013000
X053000Y-013000
X061000Y-013000
X033500Y-013000
X041500Y-013000
X092000Y007500
X100000Y007500
X072500Y007500
X080500Y007500
X053000Y007500
X061000Y007500
X033500Y007500
X041500Y007500
X014500Y007500
X022500Y007500
X092000Y026500
X100000Y026500
X072500Y026500
X080500Y026500
X053000Y026500
X061000Y026500
X033500Y026500
X041500Y026500
X014500Y026500
X022500Y026500
X092000Y046250
X100000Y046250
X072500Y046250
X080500Y046250
X053000Y046250
X061000Y046250
X033500Y046250
X041500Y046250
X014000Y046250
X022000Y046250
X092000Y065750
X100000Y065750
X072500Y065750
X080500Y065750
X053000Y065750
X061000Y065750
X033500Y065786
X041500Y065786
X014000Y065786
X022000Y065786
X072500Y-013000
X080500Y-013000
X123634Y044577
X115634Y044577
X123634Y048006
X115634Y048006
T04
X123317Y053086
X123317Y055626
X123317Y058166
X123317Y060706
X123317Y063246
X123317Y065786
X123317Y068326
X123317Y070866
X123317Y073406
X123317Y075946
X123317Y078486
X123317Y081026
X108077Y081026
X108077Y078486
X108077Y075946
X108077Y073406
X108077Y070866
X108077Y068326
X108077Y065786
X108077Y063246
X108077Y060706
X108077Y058166
X108077Y055626
X108077Y053086
T05
X020320Y078040
X013970Y080580
T06
X106540Y001580
X100190Y-000960
X107810Y-000960
X101460Y001580
X019040Y080579
X012690Y078039
X013960Y080579
X020310Y078039
X058039Y080579
X051689Y078039
X052959Y080579
X059309Y078039
X077541Y080579
X071191Y078039
X072461Y080579
X078811Y078039
X097041Y080579
X090691Y078039
X091961Y080579
X098311Y078039
X019040Y061079
X012690Y058539
X013960Y061079
X020310Y058539
X038539Y061079
X032189Y058539
X033459Y061079
X039809Y058539
X058039Y061079
X051689Y058539
X052959Y061079
X059309Y058539
X077541Y061079
X071191Y058539
X072461Y061079
X078811Y058539
X097041Y061079
X090691Y058539
X091961Y061079
X098311Y058539
X019040Y041580
X012690Y039040
X013960Y041580
X020310Y039040
X038539Y041580
X032189Y039040
X033459Y041580
X039809Y039040
X058039Y041580
X051689Y039040
X052959Y041580
X059309Y039040
X077541Y041580
X071191Y039040
X072461Y041580
X078811Y039040
X097041Y041580
X090691Y039040
X091961Y041580
X098311Y039040
X019040Y022080
X012690Y019540
X013960Y022080
X020310Y019540
X038539Y022080
X032189Y019540
X033459Y022080
X039809Y019540
X058039Y022080
X051689Y019540
X052959Y022080
X059309Y019540
X077541Y022080
X071191Y019540
X072461Y022080
X078811Y019540
X097041Y022080
X090691Y019540
X091961Y022080
X098311Y019540
X038539Y001580
X032189Y-000960
X033459Y001580
X039809Y-000960
X058039Y001580
X051689Y-000960
X052959Y001580
X059309Y-000960
X077541Y001580
X071191Y-000960
X072461Y001580
X078811Y-000960
X038539Y080579
X032189Y078039
X033459Y080579
X039809Y078039
T07
X026250Y065786
X026250Y036500
X022750Y-012750
X009000Y001000
X122000Y-003500
X084750Y065750
X084750Y036500
X107061Y037846
M30
