G04 Layer: BottomSilkLayer*
G04 EasyEDA v6.4.17, 2021-03-21T20:07:18+01:00*
G04 c47a54ca09f5448bbd9a4779f7b556aa,4df854c6aec24255a39790d4430c752a,10*
G04 Gerber Generator version 0.2*
G04 Scale: 100 percent, Rotated: No, Reflected: No *
G04 Dimensions in millimeters *
G04 leading zeros omitted , absolute positions ,4 integer and 5 decimal *
%FSLAX45Y45*%
%MOMM*%

%ADD10C,0.2540*%
%ADD20C,0.1524*%
%ADD21C,0.2032*%

%LPD*%
D20*
X11013409Y4738115D02*
G01*
X11013409Y4629150D01*
X11013409Y4738115D02*
G01*
X10966673Y4738115D01*
X10951179Y4733036D01*
X10945845Y4727702D01*
X10940765Y4717287D01*
X10940765Y4706873D01*
X10945845Y4696460D01*
X10951179Y4691379D01*
X10966673Y4686300D01*
X11013409Y4686300D01*
X10977087Y4686300D02*
G01*
X10940765Y4629150D01*
X10843991Y4722621D02*
G01*
X10849325Y4733036D01*
X10864819Y4738115D01*
X10875233Y4738115D01*
X10890727Y4733036D01*
X10901141Y4717287D01*
X10906475Y4691379D01*
X10906475Y4665471D01*
X10901141Y4644644D01*
X10890727Y4634229D01*
X10875233Y4629150D01*
X10869899Y4629150D01*
X10854405Y4634229D01*
X10843991Y4644644D01*
X10838911Y4660137D01*
X10838911Y4665471D01*
X10843991Y4680965D01*
X10854405Y4691379D01*
X10869899Y4696460D01*
X10875233Y4696460D01*
X10890727Y4691379D01*
X10901141Y4680965D01*
X10906475Y4665471D01*
X11013409Y5081015D02*
G01*
X11013409Y4972050D01*
X11013409Y5081015D02*
G01*
X10966673Y5081015D01*
X10951179Y5075936D01*
X10945845Y5070602D01*
X10940765Y5060187D01*
X10940765Y5049773D01*
X10945845Y5039360D01*
X10951179Y5034279D01*
X10966673Y5029200D01*
X11013409Y5029200D01*
X10977087Y5029200D02*
G01*
X10940765Y4972050D01*
X10843991Y5081015D02*
G01*
X10896061Y5081015D01*
X10901141Y5034279D01*
X10896061Y5039360D01*
X10880313Y5044694D01*
X10864819Y5044694D01*
X10849325Y5039360D01*
X10838911Y5029200D01*
X10833577Y5013452D01*
X10833577Y5003037D01*
X10838911Y4987544D01*
X10849325Y4977129D01*
X10864819Y4972050D01*
X10880313Y4972050D01*
X10896061Y4977129D01*
X10901141Y4982210D01*
X10906475Y4992623D01*
X11963400Y4725415D02*
G01*
X11963400Y4616450D01*
X11963400Y4725415D02*
G01*
X11927077Y4725415D01*
X11911329Y4720336D01*
X11901170Y4709921D01*
X11895836Y4699507D01*
X11890756Y4683760D01*
X11890756Y4657852D01*
X11895836Y4642357D01*
X11901170Y4631944D01*
X11911329Y4621529D01*
X11927077Y4616450D01*
X11963400Y4616450D01*
X11851131Y4699507D02*
G01*
X11851131Y4704587D01*
X11846052Y4715002D01*
X11840718Y4720336D01*
X11830304Y4725415D01*
X11809729Y4725415D01*
X11799315Y4720336D01*
X11793981Y4715002D01*
X11788902Y4704587D01*
X11788902Y4694173D01*
X11793981Y4683760D01*
X11804395Y4668265D01*
X11856465Y4616450D01*
X11783568Y4616450D01*
X11687047Y4725415D02*
G01*
X11738863Y4725415D01*
X11744197Y4678679D01*
X11738863Y4683760D01*
X11723370Y4689094D01*
X11707875Y4689094D01*
X11692127Y4683760D01*
X11681713Y4673600D01*
X11676634Y4657852D01*
X11676634Y4647437D01*
X11681713Y4631944D01*
X11692127Y4621529D01*
X11707875Y4616450D01*
X11723370Y4616450D01*
X11738863Y4621529D01*
X11744197Y4626610D01*
X11749277Y4637023D01*
X11963400Y5068315D02*
G01*
X11963400Y4959350D01*
X11963400Y5068315D02*
G01*
X11927077Y5068315D01*
X11911329Y5063236D01*
X11901170Y5052821D01*
X11895836Y5042407D01*
X11890756Y5026660D01*
X11890756Y5000752D01*
X11895836Y4985257D01*
X11901170Y4974844D01*
X11911329Y4964429D01*
X11927077Y4959350D01*
X11963400Y4959350D01*
X11851131Y5042407D02*
G01*
X11851131Y5047487D01*
X11846052Y5057902D01*
X11840718Y5063236D01*
X11830304Y5068315D01*
X11809729Y5068315D01*
X11799315Y5063236D01*
X11793981Y5057902D01*
X11788902Y5047487D01*
X11788902Y5037073D01*
X11793981Y5026660D01*
X11804395Y5011165D01*
X11856465Y4959350D01*
X11783568Y4959350D01*
X11697461Y5068315D02*
G01*
X11749277Y4995671D01*
X11671300Y4995671D01*
X11697461Y5068315D02*
G01*
X11697461Y4959350D01*
X11569700Y8624315D02*
G01*
X11569700Y8515350D01*
X11569700Y8624315D02*
G01*
X11522963Y8624315D01*
X11507470Y8619236D01*
X11502136Y8613902D01*
X11497056Y8603487D01*
X11497056Y8587994D01*
X11502136Y8577579D01*
X11507470Y8572500D01*
X11522963Y8567165D01*
X11569700Y8567165D01*
X11462765Y8603487D02*
G01*
X11452352Y8608821D01*
X11436604Y8624315D01*
X11436604Y8515350D01*
X12120372Y5315457D02*
G01*
X12109958Y5312155D01*
X12103100Y5305044D01*
X12099543Y5294629D01*
X12099543Y5291328D01*
X12103100Y5280913D01*
X12109958Y5274055D01*
X12120372Y5270500D01*
X12123927Y5270500D01*
X12134341Y5274055D01*
X12141200Y5280913D01*
X12144756Y5291328D01*
X12144756Y5294629D01*
X12141200Y5305044D01*
X12134341Y5312155D01*
X12120372Y5315457D01*
X12103100Y5315457D01*
X12085827Y5312155D01*
X12075413Y5305044D01*
X12071858Y5294629D01*
X12071858Y5287771D01*
X12075413Y5277357D01*
X12082272Y5274055D01*
X12144756Y5541771D02*
G01*
X12141200Y5531357D01*
X12134341Y5528055D01*
X12127229Y5528055D01*
X12120372Y5531357D01*
X12117070Y5538470D01*
X12113513Y5552186D01*
X12109958Y5562600D01*
X12103100Y5569457D01*
X12096241Y5573013D01*
X12085827Y5573013D01*
X12078970Y5569457D01*
X12075413Y5566155D01*
X12071858Y5555742D01*
X12071858Y5541771D01*
X12075413Y5531357D01*
X12078970Y5528055D01*
X12085827Y5524500D01*
X12096241Y5524500D01*
X12103100Y5528055D01*
X12109958Y5534913D01*
X12113513Y5545328D01*
X12117070Y5559044D01*
X12120372Y5566155D01*
X12127229Y5569457D01*
X12134341Y5569457D01*
X12141200Y5566155D01*
X12144756Y5555742D01*
X12144756Y5541771D01*
X12144756Y5827013D02*
G01*
X12071858Y5792470D01*
X12144756Y5778500D02*
G01*
X12144756Y5827013D01*
X12134341Y6074155D02*
G01*
X12141200Y6070600D01*
X12144756Y6060186D01*
X12144756Y6053328D01*
X12141200Y6042913D01*
X12130786Y6036055D01*
X12113513Y6032500D01*
X12096241Y6032500D01*
X12082272Y6036055D01*
X12075413Y6042913D01*
X12071858Y6053328D01*
X12071858Y6056629D01*
X12075413Y6067044D01*
X12082272Y6074155D01*
X12092686Y6077457D01*
X12096241Y6077457D01*
X12106656Y6074155D01*
X12113513Y6067044D01*
X12117070Y6056629D01*
X12117070Y6053328D01*
X12113513Y6042913D01*
X12106656Y6036055D01*
X12096241Y6032500D01*
X12144756Y6328155D02*
G01*
X12144756Y6293357D01*
X12113513Y6290055D01*
X12117070Y6293357D01*
X12120372Y6303771D01*
X12120372Y6314186D01*
X12117070Y6324600D01*
X12109958Y6331457D01*
X12099543Y6335013D01*
X12092686Y6335013D01*
X12082272Y6331457D01*
X12075413Y6324600D01*
X12071858Y6314186D01*
X12071858Y6303771D01*
X12075413Y6293357D01*
X12078970Y6290055D01*
X12085827Y6286500D01*
X12144756Y6575044D02*
G01*
X12096241Y6540500D01*
X12096241Y6592570D01*
X12144756Y6575044D02*
G01*
X12071858Y6575044D01*
X12144756Y6801358D02*
G01*
X12144756Y6839458D01*
X12117070Y6818629D01*
X12117070Y6829044D01*
X12113513Y6836155D01*
X12109958Y6839458D01*
X12099543Y6843013D01*
X12092686Y6843013D01*
X12082272Y6839458D01*
X12075413Y6832600D01*
X12071858Y6822186D01*
X12071858Y6811771D01*
X12075413Y6801358D01*
X12078970Y6798055D01*
X12085827Y6794500D01*
X12158979Y7056120D02*
G01*
X12161520Y7056120D01*
X12166600Y7058660D01*
X12169140Y7061200D01*
X12171679Y7066279D01*
X12171679Y7076439D01*
X12169140Y7081520D01*
X12166600Y7084060D01*
X12161520Y7086600D01*
X12156440Y7086600D01*
X12151359Y7084060D01*
X12143740Y7078979D01*
X12118340Y7053579D01*
X12118340Y7089139D01*
X12133579Y7277100D02*
G01*
X12138659Y7274560D01*
X12143740Y7269479D01*
X12146279Y7264400D01*
X12146279Y7254239D01*
X12143740Y7249160D01*
X12138659Y7244079D01*
X12133579Y7241539D01*
X12125959Y7239000D01*
X12113259Y7239000D01*
X12105640Y7241539D01*
X12100559Y7244079D01*
X12095479Y7249160D01*
X12092940Y7254239D01*
X12092940Y7264400D01*
X12095479Y7269479D01*
X12100559Y7274560D01*
X12105640Y7277100D01*
X12113259Y7277100D01*
X12113259Y7264400D02*
G01*
X12113259Y7277100D01*
X12146279Y7293863D02*
G01*
X12092940Y7293863D01*
X12146279Y7293863D02*
G01*
X12092940Y7329423D01*
X12146279Y7329423D02*
G01*
X12092940Y7329423D01*
X12146279Y7346187D02*
G01*
X12092940Y7346187D01*
X12146279Y7346187D02*
G01*
X12146279Y7363968D01*
X12143740Y7371587D01*
X12138659Y7376668D01*
X12133579Y7379208D01*
X12125959Y7381747D01*
X12113259Y7381747D01*
X12105640Y7379208D01*
X12100559Y7376668D01*
X12095479Y7371587D01*
X12092940Y7363968D01*
X12092940Y7346187D01*
X12133579Y7531100D02*
G01*
X12138659Y7528560D01*
X12143740Y7523479D01*
X12146279Y7518400D01*
X12146279Y7508239D01*
X12143740Y7503160D01*
X12138659Y7498079D01*
X12133579Y7495539D01*
X12125959Y7493000D01*
X12113259Y7493000D01*
X12105640Y7495539D01*
X12100559Y7498079D01*
X12095479Y7503160D01*
X12092940Y7508239D01*
X12092940Y7518400D01*
X12095479Y7523479D01*
X12100559Y7528560D01*
X12105640Y7531100D01*
X12113259Y7531100D01*
X12113259Y7518400D02*
G01*
X12113259Y7531100D01*
X12146279Y7547863D02*
G01*
X12092940Y7547863D01*
X12146279Y7547863D02*
G01*
X12092940Y7583423D01*
X12146279Y7583423D02*
G01*
X12092940Y7583423D01*
X12146279Y7600187D02*
G01*
X12092940Y7600187D01*
X12146279Y7600187D02*
G01*
X12146279Y7617968D01*
X12143740Y7625587D01*
X12138659Y7630668D01*
X12133579Y7633208D01*
X12125959Y7635747D01*
X12113259Y7635747D01*
X12105640Y7633208D01*
X12100559Y7630668D01*
X12095479Y7625587D01*
X12092940Y7617968D01*
X12092940Y7600187D01*
X12146279Y7747000D02*
G01*
X12092940Y7747000D01*
X12146279Y7747000D02*
G01*
X12146279Y7769860D01*
X12143740Y7777479D01*
X12141200Y7780020D01*
X12136120Y7782560D01*
X12131040Y7782560D01*
X12125959Y7780020D01*
X12123420Y7777479D01*
X12120879Y7769860D01*
X12120879Y7747000D01*
X12120879Y7764779D02*
G01*
X12092940Y7782560D01*
X12146279Y7799323D02*
G01*
X12092940Y7834884D01*
X12146279Y7834884D02*
G01*
X12092940Y7799323D01*
X12146279Y7851647D02*
G01*
X12092940Y7851647D01*
X12146279Y8018779D02*
G01*
X12092940Y8018779D01*
X12146279Y8001000D02*
G01*
X12146279Y8036560D01*
X12146279Y8053323D02*
G01*
X12092940Y8088884D01*
X12146279Y8088884D02*
G01*
X12092940Y8053323D01*
X12146279Y8120887D02*
G01*
X12143740Y8115808D01*
X12138659Y8110728D01*
X12133579Y8108187D01*
X12125959Y8105647D01*
X12113259Y8105647D01*
X12105640Y8108187D01*
X12100559Y8110728D01*
X12095479Y8115808D01*
X12092940Y8120887D01*
X12092940Y8131047D01*
X12095479Y8136128D01*
X12100559Y8141208D01*
X12105640Y8143747D01*
X12113259Y8146287D01*
X12125959Y8146287D01*
X12133579Y8143747D01*
X12138659Y8141208D01*
X12143740Y8136128D01*
X12146279Y8131047D01*
X12146279Y8120887D01*
X11041379Y8001000D02*
G01*
X10988040Y8001000D01*
X11041379Y8001000D02*
G01*
X11041379Y8023860D01*
X11038840Y8031479D01*
X11036300Y8034020D01*
X11031220Y8036560D01*
X11026140Y8036560D01*
X11021059Y8034020D01*
X11018520Y8031479D01*
X11015979Y8023860D01*
X11015979Y8001000D01*
X11015979Y8018779D02*
G01*
X10988040Y8036560D01*
X11041379Y8073644D02*
G01*
X10988040Y8053323D01*
X11041379Y8073644D02*
G01*
X10988040Y8093963D01*
X11005820Y8060944D02*
G01*
X11005820Y8086344D01*
X11041379Y8110728D02*
G01*
X10988040Y8123428D01*
X11041379Y8136128D02*
G01*
X10988040Y8123428D01*
X11041379Y8136128D02*
G01*
X10988040Y8148828D01*
X11041379Y8161528D02*
G01*
X10988040Y8148828D01*
X11028679Y7810500D02*
G01*
X11033759Y7807960D01*
X11038840Y7802879D01*
X11041379Y7797800D01*
X11041379Y7787639D01*
X11038840Y7782560D01*
X11033759Y7777479D01*
X11028679Y7774939D01*
X11021059Y7772400D01*
X11008359Y7772400D01*
X11000740Y7774939D01*
X10995659Y7777479D01*
X10990579Y7782560D01*
X10988040Y7787639D01*
X10988040Y7797800D01*
X10990579Y7802879D01*
X10995659Y7807960D01*
X11000740Y7810500D01*
X11008359Y7810500D01*
X11008359Y7797800D02*
G01*
X11008359Y7810500D01*
X11041379Y7827263D02*
G01*
X10988040Y7827263D01*
X11041379Y7827263D02*
G01*
X10988040Y7862823D01*
X11041379Y7862823D02*
G01*
X10988040Y7862823D01*
X11041379Y7879587D02*
G01*
X10988040Y7879587D01*
X11041379Y7879587D02*
G01*
X11041379Y7897368D01*
X11038840Y7904987D01*
X11033759Y7910068D01*
X11028679Y7912608D01*
X11021059Y7915147D01*
X11008359Y7915147D01*
X11000740Y7912608D01*
X10995659Y7910068D01*
X10990579Y7904987D01*
X10988040Y7897368D01*
X10988040Y7879587D01*
X11041379Y7556500D02*
G01*
X10988040Y7556500D01*
X11041379Y7556500D02*
G01*
X11041379Y7579360D01*
X11038840Y7586979D01*
X11036300Y7589520D01*
X11031220Y7592060D01*
X11026140Y7592060D01*
X11021059Y7589520D01*
X11018520Y7586979D01*
X11015979Y7579360D01*
X11015979Y7556500D01*
X11015979Y7574279D02*
G01*
X10988040Y7592060D01*
X11033759Y7644384D02*
G01*
X11038840Y7639304D01*
X11041379Y7631684D01*
X11041379Y7621523D01*
X11038840Y7613904D01*
X11033759Y7608823D01*
X11028679Y7608823D01*
X11023600Y7611363D01*
X11021059Y7613904D01*
X11018520Y7618984D01*
X11013440Y7634223D01*
X11010900Y7639304D01*
X11008359Y7641844D01*
X11003279Y7644384D01*
X10995659Y7644384D01*
X10990579Y7639304D01*
X10988040Y7631684D01*
X10988040Y7621523D01*
X10990579Y7613904D01*
X10995659Y7608823D01*
X11041379Y7678928D02*
G01*
X10988040Y7678928D01*
X11041379Y7661147D02*
G01*
X11041379Y7696708D01*
X11041379Y7264400D02*
G01*
X10988040Y7284720D01*
X11041379Y7305039D02*
G01*
X10988040Y7284720D01*
X11028679Y7359904D02*
G01*
X11033759Y7357363D01*
X11038840Y7352284D01*
X11041379Y7347204D01*
X11041379Y7337044D01*
X11038840Y7331963D01*
X11033759Y7326884D01*
X11028679Y7324344D01*
X11021059Y7321804D01*
X11008359Y7321804D01*
X11000740Y7324344D01*
X10995659Y7326884D01*
X10990579Y7331963D01*
X10988040Y7337044D01*
X10988040Y7347204D01*
X10990579Y7352284D01*
X10995659Y7357363D01*
X11000740Y7359904D01*
X11028679Y7414768D02*
G01*
X11033759Y7412228D01*
X11038840Y7407147D01*
X11041379Y7402068D01*
X11041379Y7391908D01*
X11038840Y7386828D01*
X11033759Y7381747D01*
X11028679Y7379208D01*
X11021059Y7376668D01*
X11008359Y7376668D01*
X11000740Y7379208D01*
X10995659Y7381747D01*
X10990579Y7386828D01*
X10988040Y7391908D01*
X10988040Y7402068D01*
X10990579Y7407147D01*
X10995659Y7412228D01*
X11000740Y7414768D01*
X11052556Y7038086D02*
G01*
X10979658Y7010400D01*
X11052556Y7038086D02*
G01*
X10979658Y7065771D01*
X11004041Y7020813D02*
G01*
X11004041Y7055358D01*
X11052556Y7095489D02*
G01*
X11052556Y7133589D01*
X11024870Y7113015D01*
X11024870Y7123429D01*
X11021313Y7130287D01*
X11017758Y7133589D01*
X11007343Y7137145D01*
X11000486Y7137145D01*
X10990072Y7133589D01*
X10983213Y7126731D01*
X10979658Y7116318D01*
X10979658Y7105904D01*
X10983213Y7095489D01*
X10986770Y7092187D01*
X10993627Y7088631D01*
X11052556Y6784086D02*
G01*
X10979658Y6756400D01*
X11052556Y6784086D02*
G01*
X10979658Y6811771D01*
X11004041Y6766813D02*
G01*
X11004041Y6801358D01*
X11035029Y6838187D02*
G01*
X11038586Y6838187D01*
X11045443Y6841489D01*
X11049000Y6845045D01*
X11052556Y6851904D01*
X11052556Y6865873D01*
X11049000Y6872731D01*
X11045443Y6876287D01*
X11038586Y6879589D01*
X11031727Y6879589D01*
X11024870Y6876287D01*
X11014456Y6869429D01*
X10979658Y6834631D01*
X10979658Y6883145D01*
X11052556Y6555486D02*
G01*
X10979658Y6527800D01*
X11052556Y6555486D02*
G01*
X10979658Y6583171D01*
X11004041Y6538213D02*
G01*
X11004041Y6572758D01*
X11038586Y6606031D02*
G01*
X11042141Y6612889D01*
X11052556Y6623304D01*
X10979658Y6623304D01*
X11052556Y6301486D02*
G01*
X10979658Y6273800D01*
X11052556Y6301486D02*
G01*
X10979658Y6329171D01*
X11004041Y6284213D02*
G01*
X11004041Y6318757D01*
X11052556Y6372860D02*
G01*
X11049000Y6362445D01*
X11038586Y6355587D01*
X11021313Y6352031D01*
X11010900Y6352031D01*
X10993627Y6355587D01*
X10983213Y6362445D01*
X10979658Y6372860D01*
X10979658Y6379718D01*
X10983213Y6390131D01*
X10993627Y6396989D01*
X11010900Y6400545D01*
X11021313Y6400545D01*
X11038586Y6396989D01*
X11049000Y6390131D01*
X11052556Y6379718D01*
X11052556Y6372860D01*
X11038586Y6019800D02*
G01*
X11042141Y6026657D01*
X11052556Y6037071D01*
X10979658Y6037071D01*
X11052556Y6101587D02*
G01*
X11052556Y6066789D01*
X11021313Y6063487D01*
X11024870Y6066789D01*
X11028172Y6077204D01*
X11028172Y6087618D01*
X11024870Y6098031D01*
X11017758Y6104889D01*
X11007343Y6108445D01*
X11000486Y6108445D01*
X10990072Y6104889D01*
X10983213Y6098031D01*
X10979658Y6087618D01*
X10979658Y6077204D01*
X10983213Y6066789D01*
X10986770Y6063487D01*
X10993627Y6059931D01*
X11038586Y5765800D02*
G01*
X11042141Y5772657D01*
X11052556Y5783071D01*
X10979658Y5783071D01*
X11052556Y5840729D02*
G01*
X11004041Y5805931D01*
X11004041Y5858002D01*
X11052556Y5840729D02*
G01*
X10979658Y5840729D01*
X11038586Y5486400D02*
G01*
X11042141Y5493257D01*
X11052556Y5503671D01*
X10979658Y5503671D01*
X11042141Y5568187D02*
G01*
X11049000Y5564631D01*
X11052556Y5554218D01*
X11052556Y5547360D01*
X11049000Y5536945D01*
X11038586Y5530087D01*
X11021313Y5526531D01*
X11004041Y5526531D01*
X10990072Y5530087D01*
X10983213Y5536945D01*
X10979658Y5547360D01*
X10979658Y5550915D01*
X10983213Y5561329D01*
X10990072Y5568187D01*
X11000486Y5571489D01*
X11004041Y5571489D01*
X11014456Y5568187D01*
X11021313Y5561329D01*
X11024870Y5550915D01*
X11024870Y5547360D01*
X11021313Y5536945D01*
X11014456Y5530087D01*
X11004041Y5526531D01*
X11038586Y5257800D02*
G01*
X11042141Y5264657D01*
X11052556Y5275071D01*
X10979658Y5275071D01*
X11052556Y5318760D02*
G01*
X11049000Y5308345D01*
X11038586Y5301487D01*
X11021313Y5297931D01*
X11010900Y5297931D01*
X10993627Y5301487D01*
X10983213Y5308345D01*
X10979658Y5318760D01*
X10979658Y5325618D01*
X10983213Y5336031D01*
X10993627Y5342889D01*
X11010900Y5346445D01*
X11021313Y5346445D01*
X11038586Y5342889D01*
X11049000Y5336031D01*
X11052556Y5325618D01*
X11052556Y5318760D01*
D10*
X11248204Y4577699D02*
G01*
X11248204Y4337700D01*
X10898205Y4337700D02*
G01*
X10748205Y4337700D01*
X10898205Y4577699D02*
G01*
X10748205Y4577699D01*
X11098204Y4337700D02*
G01*
X11248204Y4337700D01*
X11098204Y4577699D02*
G01*
X11248204Y4577699D01*
X10748205Y4577699D02*
G01*
X10748205Y4337700D01*
X11248204Y4920599D02*
G01*
X11248204Y4680600D01*
X10898205Y4680600D02*
G01*
X10748205Y4680600D01*
X10898205Y4920599D02*
G01*
X10748205Y4920599D01*
X11098204Y4680600D02*
G01*
X11248204Y4680600D01*
X11098204Y4920599D02*
G01*
X11248204Y4920599D01*
X10748205Y4920599D02*
G01*
X10748205Y4680600D01*
X11743402Y4347697D02*
G01*
X12183402Y4347697D01*
X11743402Y4567702D02*
G01*
X12183402Y4567702D01*
X11743402Y4347697D02*
G01*
X11743402Y4567702D01*
X12183402Y4347697D02*
G01*
X12183402Y4567702D01*
X11837339Y4347697D02*
G01*
X11837339Y4567702D01*
X11743402Y4690597D02*
G01*
X12183402Y4690597D01*
X11743402Y4910602D02*
G01*
X12183402Y4910602D01*
X11743402Y4690597D02*
G01*
X11743402Y4910602D01*
X12183402Y4690597D02*
G01*
X12183402Y4910602D01*
X11837339Y4690597D02*
G01*
X11837339Y4910602D01*
D21*
X12458700Y8483600D02*
G01*
X12458700Y5181600D01*
X10680700Y5181600D01*
X10680700Y8483600D01*
X12458700Y8483600D01*
D10*
G75*
G01
X12433300Y6070600D02*
G03X12433300Y6070600I-101600J0D01*
G75*
G01
X12433300Y6324600D02*
G03X12433300Y6324600I-101600J0D01*
G75*
G01
X12433300Y6832600D02*
G03X12433300Y6832600I-101600J0D01*
G75*
G01
X12433300Y5308600D02*
G03X12433300Y5308600I-101600J0D01*
G75*
G01
X10909300Y5308600D02*
G03X10909300Y5308600I-101600J0D01*
M02*
